# Blender v2.79 (sub 0) OBJ File: ''
# www.blender.org
mtllib Puddle.mtl
o Cylinder
v 0.000000 0.000000 -0.500000
v -0.011018 0.025000 -0.478496
v 0.097545 0.000000 -0.490393
v 0.078463 0.025000 -0.469683
v 0.191342 0.000000 -0.461940
v 0.164505 0.025000 -0.443582
v 0.277785 0.000000 -0.415735
v 0.243802 0.025000 -0.401197
v 0.353553 0.000000 -0.353553
v 0.313306 0.025000 -0.344157
v 0.415735 0.000000 -0.277785
v 0.370347 0.025000 -0.274652
v 0.461940 0.000000 -0.191342
v 0.412732 0.025000 -0.195355
v 0.490393 0.000000 -0.097545
v 0.438833 0.025000 -0.109313
v 0.500000 0.000000 -0.000000
v 0.447646 0.025000 -0.019832
v 0.490393 0.000000 0.097545
v 0.438833 0.025000 0.069649
v 0.461940 0.000000 0.191342
v 0.412732 0.025000 0.155691
v 0.415735 0.000000 0.277785
v 0.370347 0.025000 0.234988
v 0.353553 0.000000 0.353553
v 0.313306 0.025000 0.304492
v 0.277785 0.000000 0.415735
v 0.243802 0.025000 0.361533
v 0.191342 0.000000 0.461940
v 0.164505 0.025000 0.403918
v 0.097545 0.000000 0.490393
v 0.078463 0.025000 0.430019
v -0.000000 0.000000 0.500000
v -0.011018 0.025000 0.438832
v -0.097545 0.000000 0.490393
v -0.100499 0.025000 0.430018
v -0.191342 0.000000 0.461940
v -0.186541 0.025000 0.403918
v -0.277785 0.000000 0.415735
v -0.265838 0.025000 0.361533
v -0.353554 0.000000 0.353553
v -0.335342 0.025000 0.304492
v -0.415735 0.000000 0.277785
v -0.392383 0.025000 0.234987
v -0.461940 0.000000 0.191341
v -0.434768 0.025000 0.155690
v -0.490393 0.000000 0.097545
v -0.460869 0.025000 0.069648
v -0.500000 0.000000 -0.000000
v -0.469682 0.025000 -0.019833
v -0.490393 0.000000 -0.097546
v -0.460869 0.025000 -0.109314
v -0.461940 0.000000 -0.191342
v -0.434768 0.025000 -0.195356
v -0.415734 0.000000 -0.277786
v -0.392383 0.025000 -0.274653
v -0.353553 0.000000 -0.353554
v -0.335342 0.025000 -0.344157
v -0.277785 0.000000 -0.415735
v -0.265837 0.025000 -0.401198
v -0.191341 0.000000 -0.461940
v -0.186540 0.025000 -0.443583
v -0.097544 0.000000 -0.490393
v -0.100498 0.025000 -0.469683
v -0.011018 0.035000 -0.425950
v 0.071651 0.035000 -0.417808
v 0.151143 0.035000 -0.393694
v 0.224403 0.035000 -0.354536
v 0.288616 0.035000 -0.301838
v 0.341314 0.035000 -0.237625
v 0.380473 0.035000 -0.164364
v 0.404586 0.035000 -0.084872
v 0.412729 0.035000 -0.002204
v 0.404586 0.035000 0.080465
v 0.380473 0.035000 0.159957
v 0.341314 0.035000 0.233217
v 0.288616 0.035000 0.297430
v 0.224403 0.035000 0.350129
v 0.151143 0.035000 0.389287
v 0.071651 0.035000 0.413401
v -0.011018 0.035000 0.421543
v -0.093687 0.035000 0.413401
v -0.173179 0.035000 0.389287
v -0.246439 0.035000 0.350129
v -0.310652 0.035000 0.297430
v -0.363350 0.035000 0.233217
v -0.402509 0.035000 0.159957
v -0.426622 0.035000 0.080465
v -0.434764 0.035000 -0.002204
v -0.426622 0.035000 -0.084873
v -0.402508 0.035000 -0.164365
v -0.363350 0.035000 -0.237625
v -0.310652 0.035000 -0.301838
v -0.246438 0.035000 -0.354536
v -0.173178 0.035000 -0.393695
v -0.093686 0.035000 -0.417808
v -0.057293 0.040000 -0.263864
v -0.017423 0.040000 -0.259938
v 0.020915 0.040000 -0.248308
v 0.056247 0.040000 -0.229422
v 0.087217 0.040000 -0.204007
v 0.112632 0.040000 -0.173037
v 0.131518 0.040000 -0.137705
v 0.143148 0.040000 -0.099367
v 0.147074 0.040000 -0.059497
v 0.143148 0.040000 -0.019627
v 0.131518 0.040000 0.018711
v 0.112632 0.040000 0.054044
v 0.087217 0.040000 0.085013
v 0.056247 0.040000 0.110429
v 0.020915 0.040000 0.129314
v -0.017423 0.040000 0.140944
v -0.057293 0.040000 0.144871
v -0.097163 0.040000 0.140944
v -0.135501 0.040000 0.129314
v -0.170834 0.040000 0.110429
v -0.201803 0.040000 0.085013
v -0.227219 0.040000 0.054044
v -0.246104 0.040000 0.018711
v -0.257734 0.040000 -0.019627
v -0.261661 0.040000 -0.059497
v -0.257734 0.040000 -0.099367
v -0.246104 0.040000 -0.137705
v -0.227218 0.040000 -0.173038
v -0.201803 0.040000 -0.204007
v -0.170833 0.040000 -0.229422
v -0.135501 0.040000 -0.248308
v -0.097163 0.040000 -0.259938
vt 0.510342 0.645845
vt 0.518088 0.628977
vt 0.535350 0.712449
vt 0.529159 0.736839
vt 0.560410 0.787571
vt 0.556477 0.818732
vt 0.592305 0.851457
vt 0.591247 0.888376
vt 0.629810 0.901653
vt 0.632132 0.943094
vt 0.671483 0.936228
vt 0.677561 0.980785
vt 0.715723 0.953854
vt 0.725788 1.000000
vt 0.760830 0.953854
vt 0.774960 1.000000
vt 0.805070 0.936227
vt 0.823187 0.980785
vt 0.846743 0.901652
vt 0.868616 0.943094
vt 0.884248 0.851457
vt 0.909501 0.888375
vt 0.916144 0.787571
vt 0.944271 0.818731
vt 0.941204 0.712448
vt 0.971590 0.736839
vt 0.958465 0.628977
vt 0.990407 0.645844
vt 0.967265 0.540364
vt 1.000000 0.549245
vt 0.967265 0.450015
vt 1.000000 0.450754
vt 0.958466 0.361402
vt 0.990407 0.354155
vt 0.941204 0.277931
vt 0.971590 0.263161
vt 0.916144 0.202808
vt 0.944271 0.181268
vt 0.884249 0.138922
vt 0.909501 0.111624
vt 0.846744 0.088727
vt 0.868617 0.056905
vt 0.805070 0.054152
vt 0.823188 0.019215
vt 0.760830 0.036526
vt 0.774960 0.000000
vt 0.715724 0.036526
vt 0.725788 0.000000
vt 0.671483 0.054152
vt 0.677561 0.019215
vt 0.629810 0.088728
vt 0.632132 0.056906
vt 0.592305 0.138923
vt 0.591247 0.111625
vt 0.560410 0.202809
vt 0.556477 0.181269
vt 0.535350 0.277932
vt 0.529159 0.263162
vt 0.518088 0.361403
vt 0.510342 0.354156
vt 0.509288 0.450016
vt 0.500749 0.450755
vt 0.509288 0.540365
vt 0.534795 0.531784
vt 0.542925 0.613650
vt 0.500749 0.549247
vt 0.368971 0.943094
vt 0.323406 0.980785
vt 0.275034 1.000000
vt 0.225715 1.000000
vt 0.177343 0.980785
vt 0.131778 0.943095
vt 0.090770 0.888376
vt 0.055896 0.818732
vt 0.028496 0.736839
vt 0.009622 0.645845
vt 0.000000 0.549246
vt 0.000000 0.450755
vt 0.009622 0.354156
vt 0.028495 0.263162
vt 0.055896 0.181269
vt 0.090770 0.111625
vt 0.131777 0.056906
vt 0.177343 0.019215
vt 0.225715 0.000000
vt 0.275034 0.000000
vt 0.323406 0.019215
vt 0.368971 0.056906
vt 0.409979 0.111624
vt 0.444853 0.181268
vt 0.472253 0.263161
vt 0.491127 0.354155
vt 0.500749 0.450754
vt 0.500749 0.549246
vt 0.491127 0.645845
vt 0.472253 0.736839
vt 0.444853 0.818731
vt 0.409979 0.888375
vt 0.582025 0.219925
vt 0.611492 0.160903
vt 0.646872 0.303520
vt 0.632661 0.331986
vt 0.846560 0.865567
vt 0.881210 0.819193
vt 0.910677 0.219924
vt 0.881210 0.160902
vt 0.558873 0.289329
vt 0.684642 0.897510
vt 0.725514 0.913794
vt 0.957907 0.531782
vt 0.957907 0.448312
vt 0.725515 0.066301
vt 0.684642 0.082586
vt 0.558872 0.690767
vt 0.582025 0.760170
vt 0.910677 0.760170
vt 0.846560 0.114528
vt 0.542925 0.366446
vt 0.767187 0.913794
vt 0.949777 0.366445
vt 0.646142 0.114529
vt 0.611492 0.819193
vt 0.933829 0.690766
vt 0.808060 0.082585
vt 0.534795 0.448313
vt 0.808059 0.897510
vt 0.933829 0.289328
vt 0.646141 0.865567
vt 0.949777 0.613649
vt 0.767187 0.066301
vt 0.621495 0.559067
vt 0.613803 0.521874
vt 0.609882 0.482391
vt 0.609882 0.442134
vt 0.613803 0.402651
vt 0.621495 0.365458
vt 0.663583 0.281154
vt 0.682152 0.265749
vt 0.701864 0.257895
vt 0.721962 0.257895
vt 0.741674 0.265748
vt 0.760243 0.281154
vt 0.776954 0.303519
vt 0.791166 0.331985
vt 0.802332 0.365458
vt 0.810023 0.402650
vt 0.813944 0.442134
vt 0.813944 0.482391
vt 0.810023 0.521874
vt 0.802332 0.559067
vt 0.791166 0.592539
vt 0.776954 0.621005
vt 0.760243 0.643370
vt 0.741674 0.658776
vt 0.721962 0.666630
vt 0.701864 0.666630
vt 0.682152 0.658776
vt 0.663583 0.643371
vt 0.646872 0.621005
vt 0.632661 0.592539
vn 0.0729 0.6686 -0.7400
vn 0.2038 0.7121 -0.6718
vn 0.3088 0.7556 -0.5777
vn 0.3846 0.7953 -0.4686
vn 0.4322 0.8291 -0.3547
vn 0.4550 0.8566 -0.2432
vn 0.4575 0.8783 -0.1388
vn 0.4439 0.8950 -0.0437
vn 0.4178 0.9076 0.0412
vn 0.3819 0.9169 0.1158
vn 0.3382 0.9235 0.1808
vn 0.2881 0.9279 0.2365
vn 0.2325 0.9304 0.2833
vn 0.1719 0.9311 0.3217
vn 0.1066 0.9301 0.3515
vn 0.0367 0.9273 0.3724
vn -0.0378 0.9226 0.3839
vn -0.1167 0.9156 0.3848
vn -0.1998 0.9058 0.3737
vn -0.2861 0.8925 0.3486
vn -0.3741 0.8751 0.3070
vn -0.4610 0.8525 0.2464
vn -0.5423 0.8239 0.1645
vn -0.6113 0.7891 0.0602
vn -0.6598 0.7486 -0.0650
vn -0.6789 0.7048 -0.2059
vn -0.6611 0.6618 -0.3534
vn -0.6032 0.6254 -0.4950
vn -0.5069 0.6014 -0.6176
vn -0.3793 0.5939 -0.7096
vn -0.0184 0.9822 -0.1869
vn -0.2313 0.6043 -0.7625
vn -0.0761 0.6307 -0.7723
vn 0.0000 -1.0000 0.0000
vn -0.0293 0.9994 -0.0157
vn 0.3060 0.9475 0.0928
vn -0.2177 0.8869 0.4074
vn -0.1644 0.9771 -0.1350
vn 0.1995 0.9741 -0.1066
vn 0.1417 0.8728 0.4671
vn -0.2884 0.9571 0.0284
vn 0.0552 0.9817 -0.1820
vn 0.3120 0.9353 0.1668
vn -0.2715 0.9038 0.3308
vn -0.1284 0.9793 -0.1565
vn 0.2328 0.9700 -0.0706
vn 0.0493 0.8646 0.5001
vn -0.2631 0.9644 -0.0259
vn 0.0919 0.9808 -0.1720
vn 0.3020 0.9205 0.2478
vn -0.3020 0.9205 0.2478
vn -0.0919 0.9808 -0.1720
vn 0.2631 0.9644 -0.0259
vn -0.0493 0.8646 0.5001
vn -0.2328 0.9700 -0.0706
vn 0.1284 0.9793 -0.1565
vn 0.2715 0.9038 0.3308
vn -0.3120 0.9353 0.1668
vn -0.0552 0.9817 -0.1820
vn 0.2884 0.9571 0.0284
vn -0.1417 0.8728 0.4671
vn -0.1995 0.9741 -0.1066
vn 0.1644 0.9771 -0.1350
vn 0.2177 0.8869 0.4074
vn -0.3060 0.9475 0.0928
vn 0.0184 0.9822 -0.1869
vn 0.0000 1.0000 0.0000
vn 0.0081 0.9999 0.0152
vn 0.0030 0.9995 -0.0300
vn -0.0264 0.9994 -0.0217
vn 0.0051 0.9998 0.0167
vn 0.0082 0.9996 -0.0270
vn -0.0219 0.9994 -0.0267
vn 0.0018 0.9998 0.0178
vn 0.0124 0.9997 -0.0232
vn -0.0161 0.9994 -0.0302
vn -0.0018 0.9998 0.0184
vn 0.0156 0.9997 -0.0190
vn -0.0097 0.9994 -0.0319
vn -0.0056 0.9998 0.0184
vn 0.0177 0.9997 -0.0146
vn -0.0031 0.9995 -0.0317
vn -0.0095 0.9998 0.0178
vn 0.0190 0.9998 -0.0102
vn -0.0136 0.9998 0.0166
vn 0.0194 0.9998 -0.0059
vn -0.0177 0.9997 0.0145
vn 0.0192 0.9998 -0.0019
vn -0.0216 0.9997 0.0115
vn 0.0184 0.9998 0.0018
vn -0.0251 0.9997 0.0076
vn 0.0171 0.9998 0.0052
vn -0.0280 0.9996 0.0028
vn 0.0154 0.9998 0.0082
vn -0.0298 0.9996 -0.0029
vn 0.0133 0.9999 0.0109
vn -0.0304 0.9995 -0.0092
vn 0.0109 0.9999 0.0132
usemtl None
s off
f 1/1/1 2/2/1 4/3/1 3/4/1
f 3/4/2 4/3/2 6/5/2 5/6/2
f 5/6/3 6/5/3 8/7/3 7/8/3
f 7/8/4 8/7/4 10/9/4 9/10/4
f 9/10/5 10/9/5 12/11/5 11/12/5
f 11/12/6 12/11/6 14/13/6 13/14/6
f 13/14/7 14/13/7 16/15/7 15/16/7
f 15/16/8 16/15/8 18/17/8 17/18/8
f 17/18/9 18/17/9 20/19/9 19/20/9
f 19/20/10 20/19/10 22/21/10 21/22/10
f 21/22/11 22/21/11 24/23/11 23/24/11
f 23/24/12 24/23/12 26/25/12 25/26/12
f 25/26/13 26/25/13 28/27/13 27/28/13
f 27/28/14 28/27/14 30/29/14 29/30/14
f 29/30/15 30/29/15 32/31/15 31/32/15
f 31/32/16 32/31/16 34/33/16 33/34/16
f 33/34/17 34/33/17 36/35/17 35/36/17
f 35/36/18 36/35/18 38/37/18 37/38/18
f 37/38/19 38/37/19 40/39/19 39/40/19
f 39/40/20 40/39/20 42/41/20 41/42/20
f 41/42/21 42/41/21 44/43/21 43/44/21
f 43/44/22 44/43/22 46/45/22 45/46/22
f 45/46/23 46/45/23 48/47/23 47/48/23
f 47/48/24 48/47/24 50/49/24 49/50/24
f 49/50/25 50/49/25 52/51/25 51/52/25
f 51/52/26 52/51/26 54/53/26 53/54/26
f 53/54/27 54/53/27 56/55/27 55/56/27
f 55/56/28 56/55/28 58/57/28 57/58/28
f 57/58/29 58/57/29 60/59/29 59/60/29
f 59/60/30 60/59/30 62/61/30 61/62/30
f 2/2/31 64/63/31 96/64/31 65/65/31
f 61/62/32 62/61/32 64/63/32 63/66/32
f 63/66/33 64/63/33 2/2/33 1/1/33
f 1/67/34 3/68/34 5/69/34 7/70/34 9/71/34 11/72/34 13/73/34 15/74/34 17/75/34 19/76/34 21/77/34 23/78/34 25/79/34 27/80/34 29/81/34 31/82/34 33/83/34 35/84/34 37/85/34 39/86/34 41/87/34 43/88/34 45/89/34 47/90/34 49/91/34 51/92/34 53/93/34 55/94/34 57/95/34 59/96/34 61/97/34 63/98/34
f 92/99/35 91/100/35 123/101/35 124/102/35
f 22/21/36 20/19/36 74/103/36 75/104/36
f 40/39/37 38/37/37 83/105/37 84/106/37
f 58/57/38 56/55/38 92/99/38 93/107/38
f 14/13/39 12/11/39 70/108/39 71/109/39
f 32/31/40 30/29/40 79/110/40 80/111/40
f 50/49/41 48/47/41 88/112/41 89/113/41
f 6/5/42 4/3/42 66/114/42 67/115/42
f 24/23/43 22/21/43 75/104/43 76/116/43
f 42/41/44 40/39/44 84/106/44 85/117/44
f 60/59/45 58/57/45 93/107/45 94/118/45
f 16/15/46 14/13/46 71/109/46 72/119/46
f 34/33/47 32/31/47 80/111/47 81/120/47
f 52/51/48 50/49/48 89/113/48 90/121/48
f 8/7/49 6/5/49 67/115/49 68/122/49
f 26/25/50 24/23/50 76/116/50 77/123/50
f 44/43/51 42/41/51 85/117/51 86/124/51
f 62/61/52 60/59/52 94/118/52 95/125/52
f 18/17/53 16/15/53 72/119/53 73/126/53
f 36/35/54 34/33/54 81/120/54 82/127/54
f 54/53/55 52/51/55 90/121/55 91/100/55
f 10/9/56 8/7/56 68/122/56 69/128/56
f 28/27/57 26/25/57 77/123/57 78/129/57
f 46/45/58 44/43/58 86/124/58 87/130/58
f 64/63/59 62/61/59 95/125/59 96/64/59
f 20/19/60 18/17/60 73/126/60 74/103/60
f 38/37/61 36/35/61 82/127/61 83/105/61
f 56/55/62 54/53/62 91/100/62 92/99/62
f 12/11/63 10/9/63 69/128/63 70/108/63
f 30/29/64 28/27/64 78/129/64 79/110/64
f 48/47/65 46/45/65 87/130/65 88/112/65
f 4/3/66 2/2/66 65/65/66 66/114/66
f 98/131/67 97/132/67 128/133/67 127/134/67 126/135/67 125/136/67 124/102/67 123/101/67 122/137/67 121/138/67 120/139/67 119/140/67 118/141/67 117/142/67 116/143/67 115/144/67 114/145/67 113/146/67 112/147/67 111/148/67 110/149/67 109/150/67 108/151/67 107/152/67 106/153/67 105/154/67 104/155/67 103/156/67 102/157/67 101/158/67 100/159/67 99/160/67
f 79/110/68 78/129/68 110/149/68 111/148/68
f 66/114/69 65/65/69 97/132/69 98/131/69
f 93/107/70 92/99/70 124/102/70 125/136/70
f 80/111/71 79/110/71 111/148/71 112/147/71
f 67/115/72 66/114/72 98/131/72 99/160/72
f 94/118/73 93/107/73 125/136/73 126/135/73
f 81/120/74 80/111/74 112/147/74 113/146/74
f 68/122/75 67/115/75 99/160/75 100/159/75
f 95/125/76 94/118/76 126/135/76 127/134/76
f 82/127/77 81/120/77 113/146/77 114/145/77
f 69/128/78 68/122/78 100/159/78 101/158/78
f 96/64/79 95/125/79 127/134/79 128/133/79
f 83/105/80 82/127/80 114/145/80 115/144/80
f 70/108/81 69/128/81 101/158/81 102/157/81
f 65/65/82 96/64/82 128/133/82 97/132/82
f 84/106/83 83/105/83 115/144/83 116/143/83
f 71/109/84 70/108/84 102/157/84 103/156/84
f 85/117/85 84/106/85 116/143/85 117/142/85
f 72/119/86 71/109/86 103/156/86 104/155/86
f 86/124/87 85/117/87 117/142/87 118/141/87
f 73/126/88 72/119/88 104/155/88 105/154/88
f 87/130/89 86/124/89 118/141/89 119/140/89
f 74/103/90 73/126/90 105/154/90 106/153/90
f 88/112/91 87/130/91 119/140/91 120/139/91
f 75/104/92 74/103/92 106/153/92 107/152/92
f 89/113/93 88/112/93 120/139/93 121/138/93
f 76/116/94 75/104/94 107/152/94 108/151/94
f 90/121/95 89/113/95 121/138/95 122/137/95
f 77/123/96 76/116/96 108/151/96 109/150/96
f 91/100/97 90/121/97 122/137/97 123/101/97
f 78/129/98 77/123/98 109/150/98 110/149/98
